<svg width="21" height="14" viewBox="0 0 21 14" fill="none" xmlns="http://www.w3.org/2000/svg">
<rect width="21" height="14" fill="#E5E5E5"/>
<g clip-path="url(#clip0_0_1)">
<rect width="1440" height="4408" transform="translate(-100 -4187)" fill="white"/>
<rect width="1440" height="390" transform="translate(-100 -169)" fill="#F5F5F5"/>
<rect x="-100" y="-169" width="1440" height="390" fill="#F5F5F5"/>
<path opacity="0.8" d="M18.5522 0.148682H2.06787C1.09861 0.148682 0.310059 0.937236 0.310059 1.90649V12.0933C0.310059 13.0625 1.09861 13.8511 2.06787 13.8511H18.5522C19.5215 13.8511 20.3101 13.0625 20.3101 12.0933V1.90649C20.3101 0.937236 19.5215 0.148682 18.5522 0.148682ZM18.3228 1.32056L18.0882 1.51591L11.0075 7.41204C10.6033 7.74853 10.0167 7.74853 9.61264 7.41204L2.53189 1.51591L2.29729 1.32056H18.3228ZM1.48193 2.16657L7.25115 6.9706L1.48193 10.8102V2.16657ZM18.5522 12.6792H2.06787C1.78475 12.6792 1.54795 12.4774 1.49369 12.21L8.19076 7.75298L8.86279 8.31259C9.28209 8.66173 9.79611 8.8363 10.3101 8.8363C10.8241 8.8363 11.3381 8.66173 11.7574 8.31259L12.4294 7.75298L19.1265 12.21C19.0722 12.4774 18.8354 12.6792 18.5522 12.6792ZM19.1382 10.8102L13.369 6.97064L19.1382 2.16657V10.8102Z" fill="black"/>
</g>
<defs>
<clipPath id="clip0_0_1">
<rect width="1440" height="4408" fill="white" transform="translate(-100 -4187)"/>
</clipPath>
</defs>
</svg>
