<svg width="60" height="60" viewBox="0 0 60 60" fill="none" xmlns="http://www.w3.org/2000/svg">
<path d="M30 0C13.4481 0 0 13.4481 0 30C0 46.5519 13.4481 60 30 60C46.5519 60 60 46.5519 60 30C60 13.4481 46.5519 0 30 0ZM30 2.7907C45.0437 2.7907 57.2093 14.9563 57.2093 30C57.2093 45.0437 45.0437 57.2093 30 57.2093C14.9563 57.2093 2.7907 45.0437 2.7907 30C2.7907 14.9563 14.9563 2.7907 30 2.7907ZM19.5567 15.327C19.3697 15.3241 19.1842 15.3588 19.0109 15.429C18.8376 15.4992 18.6803 15.6034 18.5481 15.7356C18.4159 15.8678 18.3116 16.0252 18.2414 16.1984C18.1713 16.3717 18.1366 16.5573 18.1395 16.7442V43.2558C18.1374 43.5018 18.2003 43.744 18.3218 43.9578C18.4434 44.1717 18.6193 44.3496 18.8318 44.4735C19.0443 44.5975 19.2858 44.6631 19.5318 44.6636C19.7777 44.6642 20.0195 44.5997 20.2326 44.4767L43.9535 31.2209C44.1993 31.0829 44.3976 30.8735 44.5221 30.6206C44.6467 30.3676 44.6917 30.0828 44.6512 29.8037C44.6217 29.5907 44.5434 29.3875 44.4223 29.2097C44.3013 29.032 44.1409 28.8846 43.9535 28.7791L20.2326 15.5233C20.0277 15.4012 19.795 15.3336 19.5567 15.327ZM20.9302 19.1206L40.3997 30L20.9302 40.8793V19.1206Z" fill="#202F62"/>
</svg>
