<svg width="21" height="16" viewBox="0 0 21 16" fill="none" xmlns="http://www.w3.org/2000/svg">
<path opacity="0.8" d="M17.3145 14.7387C16.7753 14.955 16.2023 15.0741 15.6033 15.0939C12.9642 15.181 10.2794 14.6758 7.83913 13.6327C5.39887 12.5897 3.17838 10.9982 1.41771 9.03032C0.851896 8.3979 0.466042 7.66558 0.27091 6.85358C0.0881383 6.09299 0.0866774 5.28402 0.266708 4.51411C0.447539 3.74081 0.810031 3.01256 1.31498 2.40811C1.85345 1.76354 2.52773 1.27575 3.31915 0.958304C3.5653 0.859574 3.84701 0.946228 3.99513 1.1662L6.34836 4.6615C6.45491 4.81977 6.47396 5.02129 6.39899 5.19673L5.56043 7.15848C7.93461 9.25478 10.9375 10.5384 14.0934 10.8059L14.932 8.84412C15.007 8.6687 15.1659 8.54327 15.3538 8.51086L19.5065 7.79648C19.7679 7.75152 20.0251 7.89528 20.1239 8.14143C20.4413 8.93285 20.5547 9.75735 20.4608 10.592C20.3729 11.3747 20.097 12.1399 19.663 12.805C19.2309 13.4672 18.6451 14.0251 17.969 14.4186C17.7572 14.542 17.5387 14.6487 17.3145 14.7387ZM3.32999 2.19255C2.33228 2.72651 1.62518 3.64533 1.36212 4.77031C1.0663 6.03533 1.39212 7.31462 2.25608 8.28023C5.64104 12.0634 10.4924 14.1371 15.5661 13.9696C16.8611 13.9268 18.0109 13.2783 18.7209 12.1903C19.3523 11.2227 19.5278 10.0767 19.2243 8.98653L15.8462 9.56769L14.9704 11.6165C14.8772 11.8345 14.6574 11.9706 14.4208 11.9569C10.7297 11.7436 7.20721 10.2379 4.50232 7.71731C4.3289 7.55571 4.27538 7.30272 4.36858 7.08473L5.24432 5.03596L3.32999 2.19255Z" fill="black"/>
</svg>
