<svg width="20" height="20" viewBox="0 0 20 20" fill="none" xmlns="http://www.w3.org/2000/svg">
<g opacity="0.8" clip-path="url(#clip0_246_330)">
<path d="M2.9292 17.6172H17.0698C18.6853 17.6172 19.9995 16.3029 19.9995 14.6875V5.3125C19.9995 3.69705 18.6853 2.38281 17.0698 2.38281H2.9292C1.31375 2.38281 -0.000488281 3.69705 -0.000488281 5.3125V14.6875C-0.000488281 16.3029 1.31375 17.6172 2.9292 17.6172ZM1.17139 5.3125C1.17139 4.34326 1.95996 3.55469 2.9292 3.55469H17.0698C18.0391 3.55469 18.8276 4.34326 18.8276 5.3125V14.6875C18.8276 15.6567 18.0391 16.4453 17.0698 16.4453H2.9292C1.95996 16.4453 1.17139 15.6567 1.17139 14.6875V5.3125Z" fill="black"/>
<path d="M7.06982 6.07446V14.0392L14.1206 9.99155L7.06982 6.07446ZM8.2417 8.06604L11.7378 10.0083L8.2417 12.0153V8.06604Z" fill="black"/>
</g>
<defs>
<clipPath id="clip0_246_330">
<rect width="20" height="20" fill="white" transform="translate(-0.000488281)"/>
</clipPath>
</defs>
</svg>
