<svg width="20" height="20" viewBox="0 0 20 20" fill="none" xmlns="http://www.w3.org/2000/svg">
<path fill-rule="evenodd" clip-rule="evenodd" d="M9.42819 16.9037C9.7087 17.2984 10.2913 17.2984 10.5718 16.9037V16.9037C11.2511 15.9476 11.9304 14.9416 12.5639 13.9335C12.9735 13.2816 13.3506 12.6497 13.6881 12.045C14.7941 10.0638 15.4167 8.48038 15.4167 7.50001C15.4167 4.50847 12.9915 2.08334 10 2.08334C7.00846 2.08334 4.58333 4.50847 4.58333 7.50001C4.58333 8.48038 5.20586 10.0638 6.3119 12.045C6.64945 12.6497 7.02649 13.2816 7.43613 13.9335C8.06958 14.9416 8.74887 15.9476 9.42819 16.9037V16.9037Z" stroke="black" stroke-linejoin="round"/>
<path d="M10 9.58332C11.1506 9.58332 12.0833 8.65058 12.0833 7.49999C12.0833 6.3494 11.1506 5.41666 10 5.41666C8.84941 5.41666 7.91667 6.3494 7.91667 7.49999C7.91667 8.65058 8.84941 9.58332 10 9.58332Z" stroke="black"/>
</svg>
