<svg width="20" height="20" viewBox="0 0 20 20" fill="none" xmlns="http://www.w3.org/2000/svg">
<path d="M0.29165 19.7084C0.479564 19.8951 0.733763 20 0.998727 20C1.26369 20 1.51789 19.8951 1.7058 19.7084L10.0252 11.3939L18.3447 19.7084C18.5365 19.8727 18.7833 19.9585 19.0358 19.9488C19.2882 19.939 19.5276 19.8344 19.7062 19.6558C19.8849 19.4771 19.9895 19.2377 19.9993 18.9853C20.009 18.7329 19.9231 18.4861 19.7588 18.2942L11.4444 9.97476L19.7588 1.65532C19.9231 1.46345 20.009 1.21665 19.9993 0.964236C19.9895 0.711819 19.8849 0.472376 19.7062 0.293757C19.5276 0.115138 19.2882 0.0104978 19.0358 0.000747979C18.7833 -0.00900182 18.5365 0.0768565 18.3447 0.241165L10.0252 8.55559L1.7058 0.241165C1.51394 0.0768565 1.26714 -0.00900182 1.01472 0.000747979C0.762303 0.0104978 0.52286 0.115138 0.344241 0.293757C0.165622 0.472376 0.0609819 0.711819 0.0512322 0.964236C0.0414824 1.21665 0.127341 1.46345 0.29165 1.65532L8.60607 9.97476L0.29165 18.2942C0.10485 18.4821 0 18.7363 0 19.0013C0 19.2662 0.10485 19.5204 0.29165 19.7084Z" fill="black"/>
</svg>
