<svg width="20" height="24" viewBox="0 0 20 24" fill="none" xmlns="http://www.w3.org/2000/svg">
<g opacity="0.4">
<path d="M0 20.1677V21.3757C0 21.9097 0.212127 22.4219 0.589715 22.7994C0.967303 23.177 1.47942 23.3892 2.01341 23.3892H17.9865C18.5205 23.3892 19.0326 23.177 19.4102 22.7994C19.7878 22.4219 19.9999 21.9097 19.9999 21.3757V20.1677C20.0084 18.1451 19.3993 16.1681 18.254 14.5011C17.1086 12.834 15.4816 11.5563 13.5905 10.8389C14.2855 10.2203 14.8398 9.45988 15.216 8.60896C15.5923 7.75804 15.7818 6.83635 15.7717 5.90601C15.7717 2.55032 13.2885 0 9.99995 0C6.71138 0 4.22817 2.58388 4.22817 5.93957C4.21813 6.86991 4.40762 7.7916 4.78388 8.64252C5.16014 9.49344 5.71442 10.2538 6.40937 10.8724C4.52634 11.5919 2.90573 12.8654 1.76144 14.5249C0.617157 16.1844 0.00298776 18.1519 0 20.1677V20.1677ZM5.57044 5.93957C5.57044 3.28858 7.44963 1.37583 9.99995 1.37583C12.5503 1.37583 14.4295 3.28858 14.4295 5.93957C14.4295 8.59057 12.4496 10.906 9.99995 10.906C7.5503 10.906 5.57044 8.65768 5.57044 5.93957ZM7.88587 11.7785C8.55242 12.0705 9.27224 12.2212 9.99995 12.2212C10.7277 12.2212 11.4475 12.0705 12.114 11.7785C13.9772 12.2595 15.6291 13.343 16.8126 14.8602C17.996 16.3775 18.6447 18.2435 18.6576 20.1677V21.3757C18.6576 21.5537 18.5869 21.7244 18.4611 21.8503C18.3352 21.9762 18.1645 22.0469 17.9865 22.0469H2.01341C1.83542 22.0469 1.66471 21.9762 1.53885 21.8503C1.41298 21.7244 1.34228 21.5537 1.34228 21.3757V20.1677C1.33784 18.239 1.98004 16.3645 3.16624 14.8438C4.35243 13.323 6.01416 12.2437 7.88587 11.7785V11.7785Z" fill="black"/>
</g>
</svg>
